<svg xmlns="http://www.w3.org/2000/svg" xmlns:xlink="http://www.w3.org/1999/xlink" width="500" zoomAndPan="magnify" viewBox="0 0 375 374.999991" height="500" preserveAspectRatio="xMidYMid meet" version="1.0"><defs><g/></defs><g fill="#4bfb00" fill-opacity="1"><g transform="translate(32.263501, 199.124987)"><g><path d="M 10.84375 0 L 3.40625 0 L 3.40625 -35.765625 L 15.59375 -35.765625 C 17.800781 -35.765625 19.816406 -35.351562 21.640625 -34.53125 C 23.472656 -33.71875 25.050781 -32.628906 26.375 -31.265625 C 27.707031 -29.910156 28.738281 -28.375 29.46875 -26.65625 C 30.207031 -24.945312 30.578125 -23.179688 30.578125 -21.359375 C 30.578125 -18.316406 29.910156 -15.585938 28.578125 -13.171875 C 27.253906 -10.753906 25.429688 -8.859375 23.109375 -7.484375 C 20.785156 -6.109375 18.125 -5.421875 15.125 -5.421875 L 10.84375 -5.421875 Z M 10.84375 -12.1875 L 14.921875 -12.1875 C 16.648438 -12.1875 18.113281 -12.5625 19.3125 -13.3125 C 20.519531 -14.070312 21.425781 -15.085938 22.03125 -16.359375 C 22.632812 -17.640625 22.9375 -19.050781 22.9375 -20.59375 C 22.9375 -22 22.640625 -23.34375 22.046875 -24.625 C 21.460938 -25.90625 20.609375 -26.960938 19.484375 -27.796875 C 18.367188 -28.628906 16.992188 -29.046875 15.359375 -29.046875 L 10.84375 -29.046875 Z M 10.84375 -12.1875 "/></g></g></g><g fill="#4bfb00" fill-opacity="1"><g transform="translate(72.631434, 199.124987)"><g><path d="M 14.59375 -6.1875 L 10.84375 -6.1875 L 10.84375 0 L 3.40625 0 L 3.40625 -35.765625 L 15.84375 -35.765625 C 17.957031 -35.765625 19.910156 -35.398438 21.703125 -34.671875 C 23.492188 -33.953125 25.0625 -32.945312 26.40625 -31.65625 C 27.75 -30.363281 28.796875 -28.867188 29.546875 -27.171875 C 30.296875 -25.472656 30.671875 -23.648438 30.671875 -21.703125 C 30.671875 -18.492188 29.953125 -15.738281 28.515625 -13.4375 C 27.078125 -11.132812 25.109375 -9.40625 22.609375 -8.25 L 30.34375 0 L 20.453125 0 Z M 10.84375 -12.90625 L 13.921875 -12.90625 C 16.867188 -12.90625 19.125 -13.609375 20.6875 -15.015625 C 22.257812 -16.429688 23.046875 -18.46875 23.046875 -21.125 C 23.046875 -22.59375 22.753906 -23.914062 22.171875 -25.09375 C 21.597656 -26.28125 20.742188 -27.234375 19.609375 -27.953125 C 18.472656 -28.679688 17.054688 -29.046875 15.359375 -29.046875 L 10.84375 -29.046875 Z M 10.84375 -12.90625 "/></g></g></g><g fill="#4bfb00" fill-opacity="1"><g transform="translate(113.383361, 199.124987)"><g><path d="M 10.84375 -35.765625 L 10.84375 0 L 3.40625 0 L 3.40625 -35.765625 Z M 10.84375 -35.765625 "/></g></g></g><g fill="#4bfb00" fill-opacity="1"><g transform="translate(135.991323, 199.124987)"><g><path d="M 19.109375 -14.78125 L 29.328125 -35.765625 L 37.015625 -35.765625 L 18.8125 0.625 L -0.28125 -35.765625 L 8.25 -35.765625 Z M 19.109375 -14.78125 "/></g></g></g><g fill="#ffffff" fill-opacity="1"><g transform="translate(172.618964, 199.124987)"><g><path d="M 29.375 0 L 27.03125 -4.796875 L 9.703125 -4.796875 L 7.390625 0 L -0.28125 0 L 18.578125 -36.390625 L 37.484375 0 Z M 18.28125 -22.65625 L 12.90625 -11.515625 L 23.765625 -11.515625 Z M 18.28125 -22.65625 "/></g></g></g><g fill="#ffffff" fill-opacity="1"><g transform="translate(218.170887, 199.124987)"><g><path d="M 28.84375 -15.078125 L 28.84375 -35.765625 L 36.28125 -35.765625 L 36.28125 0.625 L 10.84375 -20.546875 L 10.84375 0 L 3.40625 0 L 3.40625 -36.4375 Z M 28.84375 -15.078125 "/></g></g></g><g fill="#ffffff" fill-opacity="1"><g transform="translate(266.218812, 199.124987)"><g><path d="M 31.203125 -15.796875 L 38.734375 -15.796875 C 38.484375 -13.492188 37.828125 -11.347656 36.765625 -9.359375 C 35.710938 -7.378906 34.351562 -5.644531 32.6875 -4.15625 C 31.019531 -2.664062 29.128906 -1.492188 27.015625 -0.640625 C 24.910156 0.203125 22.671875 0.625 20.296875 0.625 C 17.742188 0.625 15.351562 0.144531 13.125 -0.8125 C 10.90625 -1.769531 8.953125 -3.097656 7.265625 -4.796875 C 5.585938 -6.492188 4.273438 -8.453125 3.328125 -10.671875 C 2.390625 -12.898438 1.921875 -15.296875 1.921875 -17.859375 C 1.921875 -20.421875 2.390625 -22.820312 3.328125 -25.0625 C 4.273438 -27.300781 5.585938 -29.265625 7.265625 -30.953125 C 8.953125 -32.648438 10.90625 -33.976562 13.125 -34.9375 C 15.351562 -35.90625 17.726562 -36.390625 20.25 -36.390625 C 23.582031 -36.390625 26.644531 -35.59375 29.4375 -34 C 32.238281 -32.414062 34.441406 -30.316406 36.046875 -27.703125 L 30.234375 -23.5625 C 28.953125 -25.488281 27.441406 -26.921875 25.703125 -27.859375 C 23.960938 -28.804688 22.160156 -29.28125 20.296875 -29.28125 C 18.316406 -29.28125 16.507812 -28.765625 14.875 -27.734375 C 13.25 -26.710938 11.953125 -25.335938 10.984375 -23.609375 C 10.023438 -21.890625 9.546875 -19.972656 9.546875 -17.859375 C 9.546875 -15.773438 10.023438 -13.867188 10.984375 -12.140625 C 11.953125 -10.410156 13.25 -9.039062 14.875 -8.03125 C 16.507812 -7.03125 18.316406 -6.53125 20.296875 -6.53125 C 22.085938 -6.53125 23.742188 -6.925781 25.265625 -7.71875 C 26.785156 -8.519531 28.070312 -9.617188 29.125 -11.015625 C 30.1875 -12.410156 30.878906 -14.003906 31.203125 -15.796875 Z M 31.203125 -15.796875 "/></g></g></g><g fill="#ffffff" fill-opacity="1"><g transform="translate(315.226724, 199.124987)"><g><path d="M 25.578125 0 L 3.40625 0 L 3.40625 -35.765625 L 22.421875 -35.765625 L 22.421875 -29.046875 L 10.84375 -29.046875 L 10.84375 -22.375 L 24.28125 -22.375 L 24.28125 -15.703125 L 10.84375 -15.703125 L 10.84375 -6.71875 L 25.578125 -6.71875 Z M 25.578125 0 "/></g></g></g></svg>